# Blender v2.78 (sub 0) OBJ File: ''
# www.blender.org
mtllib ground.mtl
o Cube_Cube.001
v -0.004457 -0.021780 -10.000000
v -1.500000 -1.517325 -0.000000
v -1.500000 1.482675 0.000000
v -0.004457 -0.012867 -10.000000
v 1.500000 1.482675 0.000000
v 0.004457 -0.012867 -10.000000
v 1.500000 -1.517325 -0.000000
v 0.004457 -0.021780 -10.000000
vt 0.4998 0.7493
vt 0.0002 0.5002
vt 0.0002 0.9998
vt 0.4998 0.7507
vt 0.9998 0.2493
vt 0.5002 0.0002
vt 0.5002 0.4998
vt 0.9998 0.2507
vt 0.5002 0.0002
vt 0.9998 0.2493
vt 0.4998 0.7507
vt 0.0002 0.9998
vt 0.5016 0.5002
vt 0.5002 0.5002
vt 0.5002 0.5016
vt 0.5016 0.5016
vt 0.0002 0.0002
vt 0.4999 0.0002
vt 0.4998 0.4999
vt 0.0002 0.4998
vn -0.9890 0.0000 -0.1479
vn 0.0000 0.9890 -0.1479
vn 0.9890 0.0000 -0.1479
vn 0.0000 -0.9890 -0.1479
vn 0.0000 0.0000 -1.0000
vn 0.0000 -0.0000 1.0000
usemtl Material.001
s 1
f 1/1/1 2/2/1 3/3/1 4/4/1
f 4/5/2 3/6/2 5/7/2 6/8/2
f 6/8/3 5/7/3 7/9/3 8/10/3
f 8/11/4 7/12/4 2/2/4 1/1/4
f 4/13/5 6/14/5 8/15/5 1/16/5
f 5/17/6 3/18/6 2/19/6 7/20/6
