# Blender v2.78 (sub 0) OBJ File: 'pacman.blend'
# www.blender.org
mtllib SphereSnake.mtl
o Icosphere.001
v 0.000000 -0.073987 -0.000000
v 0.015533 -0.068533 0.011285
v -0.005933 -0.068533 0.018260
v 0.026426 -0.053799 0.019199
v 0.031065 -0.056667 -0.000000
v -0.019199 -0.068533 -0.000000
v -0.005933 -0.068533 -0.018260
v 0.015533 -0.068533 -0.011285
v 0.034732 -0.037467 0.011285
v -0.010093 -0.053799 0.031065
v 0.009600 -0.056667 0.029545
v 0.000000 -0.037467 0.036520
v -0.032664 -0.053799 -0.000000
v -0.025132 -0.056667 0.018260
v -0.034732 -0.037467 0.011285
v -0.010093 -0.053799 -0.031065
v -0.025132 -0.056667 -0.018260
v -0.021466 -0.037467 -0.029545
v 0.026426 -0.053799 -0.019199
v 0.009600 -0.056667 -0.029545
v 0.021466 -0.037467 -0.029545
v 0.021466 -0.037467 0.029545
v -0.021466 -0.037467 0.029545
v -0.034732 -0.037467 -0.011285
v 0.000000 -0.037467 -0.036520
v 0.034732 -0.037467 -0.011285
v 0.010093 -0.021135 0.031065
v 0.025132 -0.018267 0.018260
v 0.005933 -0.006401 0.018260
v -0.026426 -0.021135 0.019199
v -0.009600 -0.018267 0.029545
v -0.015533 -0.006401 0.011285
v -0.026426 -0.021135 -0.019199
v -0.031065 -0.018267 -0.000000
v -0.015533 -0.006401 -0.011285
v 0.010093 -0.021135 -0.031065
v -0.009600 -0.018267 -0.029545
v 0.005933 -0.006401 -0.018260
v 0.032664 -0.021135 -0.000000
v 0.025132 -0.018267 -0.018260
v 0.019199 -0.006402 -0.000000
v 0.000000 -0.000947 -0.000000
vt 0.5342 0.1902
vt 0.4392 0.2592
vt 0.5705 0.3018
vt 0.9400 0.5709
vt 0.9439 0.6731
vt 0.8477 0.6455
vt 0.6516 0.1902
vt 0.5705 0.0785
vt 0.4392 0.1212
vt 0.8477 0.5093
vt 0.0927 0.4715
vt 0.2124 0.4496
vt 0.1581 0.5690
vt 0.7934 0.2850
vt 0.8808 0.3567
vt 0.9035 0.2339
vt 0.4088 0.4715
vt 0.3163 0.4573
vt 0.3430 0.5738
vt 0.6320 0.4634
vt 0.5286 0.4496
vt 0.6053 0.5643
vt 0.9439 0.4527
vt 0.0269 0.5738
vt 0.7846 0.1640
vt 0.4742 0.5690
vt 0.7376 0.6899
vt 0.6324 0.6358
vt 0.7287 0.5793
vt 0.2519 0.0002
vt 0.3438 0.0785
vt 0.2264 0.0785
vt 0.0286 0.0728
vt 0.1315 0.0095
vt 0.0952 0.1212
vt 0.7934 0.0534
vt 0.9035 0.0977
vt 0.8808 0.0002
vt 0.5395 0.6666
vt 0.4198 0.6885
vt 0.5173 0.7576
vt 0.7376 0.4582
vt 0.6324 0.4997
vt 0.6919 0.3805
vt 0.3076 0.1902
vt 0.2264 0.3018
vt 0.1902 0.1902
vt 0.3438 0.3018
vt 0.2519 0.3801
vt 0.0952 0.2592
vt 0.1315 0.3708
vt 0.0286 0.3076
vt 0.0002 0.1902
vt 0.9959 0.1723
vt 0.9998 0.0701
vt 0.1037 0.6885
vt 0.2234 0.6666
vt 0.2012 0.7576
vt 0.8249 0.3865
vt 0.6320 0.6808
vt 0.3163 0.6747
vt 0.0002 0.6747
vt 0.2892 0.5643
vt 0.3159 0.6808
vt 0.6883 0.1074
vt 0.6883 0.2436
vt 0.9998 0.2905
vt 0.0002 0.4573
vt 0.3159 0.4634
vt 0.4755 0.0095
vt 0.3726 0.0728
vt 0.4310 0.3805
vt 0.6879 0.0785
vt 0.5959 0.0002
vt 0.7478 0.3627
vt 0.6879 0.3018
vt 0.5959 0.3801
vt 0.8249 0.7430
vt 0.3443 0.1902
vt 0.1149 0.3805
vt 0.4755 0.3708
vt 0.3726 0.3076
vn 0.1024 -0.9435 0.3151
vn 0.7002 -0.6617 0.2680
vn -0.2680 -0.9435 0.1947
vn -0.2680 -0.9435 -0.1947
vn 0.1024 -0.9435 -0.3151
vn 0.9050 -0.3304 0.2680
vn 0.0247 -0.3304 0.9435
vn -0.8897 -0.3304 0.3151
vn -0.5746 -0.3304 -0.7488
vn 0.5346 -0.3304 -0.7779
vn 0.8026 -0.1257 0.5831
vn -0.3066 -0.1257 0.9435
vn -0.9921 -0.1256 0.0000
vn -0.3066 -0.1257 -0.9435
vn 0.8026 -0.1257 -0.5831
vn 0.4089 0.6617 0.6284
vn -0.4713 0.6617 0.5831
vn -0.7002 0.6617 -0.2680
vn 0.0386 0.6617 -0.7488
vn 0.7240 0.6617 -0.1947
vn 0.2681 0.9435 -0.1947
vn 0.4911 0.7947 -0.3568
vn 0.4089 0.6617 -0.6284
vn -0.1024 0.9435 -0.3151
vn -0.1876 0.7947 -0.5774
vn -0.4713 0.6617 -0.5831
vn -0.3313 0.9435 0.0000
vn -0.6071 0.7947 0.0000
vn -0.7002 0.6617 0.2680
vn -0.1024 0.9435 0.3151
vn -0.1876 0.7947 0.5774
vn 0.0386 0.6617 0.7488
vn 0.2681 0.9435 0.1947
vn 0.4911 0.7947 0.3568
vn 0.7240 0.6617 0.1947
vn 0.8897 0.3304 -0.3151
vn 0.7946 0.1876 -0.5774
vn 0.5746 0.3304 -0.7488
vn -0.0247 0.3304 -0.9435
vn -0.3035 0.1876 -0.9342
vn -0.5346 0.3304 -0.7779
vn -0.9050 0.3304 -0.2680
vn -0.9822 0.1876 0.0000
vn -0.9050 0.3304 0.2680
vn -0.5346 0.3304 0.7779
vn -0.3035 0.1876 0.9342
vn -0.0247 0.3304 0.9435
vn 0.5746 0.3304 0.7488
vn 0.7946 0.1876 0.5774
vn 0.8897 0.3304 0.3151
vn 0.3066 0.1257 -0.9435
vn 0.3035 -0.1876 -0.9342
vn 0.0247 -0.3304 -0.9435
vn -0.8026 0.1257 -0.5831
vn -0.7946 -0.1876 -0.5774
vn -0.8897 -0.3304 -0.3151
vn -0.8026 0.1257 0.5831
vn -0.7946 -0.1876 0.5774
vn -0.5746 -0.3304 0.7488
vn 0.3066 0.1257 0.9435
vn 0.3035 -0.1876 0.9342
vn 0.5346 -0.3304 0.7779
vn 0.9921 0.1256 0.0000
vn 0.9822 -0.1876 0.0000
vn 0.9050 -0.3304 -0.2680
vn 0.4713 -0.6617 -0.5831
vn 0.1876 -0.7947 -0.5774
vn -0.0386 -0.6617 -0.7488
vn -0.4089 -0.6617 -0.6284
vn -0.4911 -0.7947 -0.3568
vn -0.7240 -0.6617 -0.1947
vn -0.7240 -0.6617 0.1947
vn -0.4911 -0.7947 0.3568
vn -0.4089 -0.6617 0.6284
vn 0.7002 -0.6617 -0.2680
vn 0.6071 -0.7947 0.0000
vn 0.3313 -0.9435 0.0000
vn -0.0386 -0.6617 0.7488
vn 0.1876 -0.7947 0.5774
vn 0.4713 -0.6617 0.5831
usemtl Material.004
s 1
f 1/1/1 2/2/1 3/3/1
f 4/4/2 2/5/2 5/6/2
f 1/1/3 3/3/3 6/7/3
f 1/1/4 6/7/4 7/8/4
f 1/1/5 7/8/5 8/9/5
f 4/4/6 5/6/6 9/10/6
f 10/11/7 11/12/7 12/13/7
f 13/14/8 14/15/8 15/16/8
f 16/17/9 17/18/9 18/19/9
f 19/20/10 20/21/10 21/22/10
f 4/4/11 9/10/11 22/23/11
f 10/11/12 12/13/12 23/24/12
f 13/14/13 15/16/13 24/25/13
f 16/17/14 18/19/14 25/26/14
f 19/27/15 21/28/15 26/29/15
f 27/30/16 28/31/16 29/32/16
f 30/33/17 31/34/17 32/35/17
f 33/36/18 34/37/18 35/38/18
f 36/39/19 37/40/19 38/41/19
f 39/42/20 40/43/20 41/44/20
f 41/45/21 38/46/21 42/47/21
f 41/45/22 40/48/22 38/46/22
f 40/48/23 36/49/23 38/46/23
f 38/46/24 35/50/24 42/47/24
f 38/46/25 37/51/25 35/50/25
f 37/51/26 33/52/26 35/50/26
f 35/50/27 32/35/27 42/47/27
f 35/50/28 34/53/28 32/35/28
f 34/37/29 30/54/29 32/55/29
f 32/35/30 29/32/30 42/47/30
f 32/35/31 31/34/31 29/32/31
f 31/56/32 27/57/32 29/58/32
f 29/32/33 41/45/33 42/47/33
f 29/32/34 28/31/34 41/45/34
f 28/59/35 39/42/35 41/44/35
f 26/29/36 40/43/36 39/42/36
f 26/29/37 21/28/37 40/43/37
f 21/22/38 36/39/38 40/60/38
f 25/26/39 37/40/39 36/39/39
f 25/26/40 18/19/40 37/40/40
f 18/19/41 33/61/41 37/40/41
f 24/25/42 34/37/42 33/36/42
f 24/25/43 15/16/43 34/37/43
f 15/16/44 30/54/44 34/37/44
f 23/24/45 31/56/45 30/62/45
f 23/24/46 12/13/46 31/56/46
f 12/13/47 27/57/47 31/56/47
f 22/63/48 28/64/48 27/57/48
f 22/23/49 9/10/49 28/59/49
f 9/10/50 39/42/50 28/59/50
f 21/22/51 25/26/51 36/39/51
f 21/22/52 20/21/52 25/26/52
f 20/21/53 16/17/53 25/26/53
f 18/65/54 24/25/54 33/36/54
f 18/65/55 17/66/55 24/25/55
f 17/66/56 13/14/56 24/25/56
f 15/16/57 23/67/57 30/54/57
f 15/16/58 14/15/58 23/67/58
f 14/68/59 10/11/59 23/24/59
f 12/13/60 22/63/60 27/57/60
f 12/13/61 11/12/61 22/63/61
f 11/12/62 4/69/62 22/63/62
f 9/10/63 26/29/63 39/42/63
f 9/10/64 5/6/64 26/29/64
f 5/6/65 19/27/65 26/29/65
f 8/9/66 20/70/66 19/71/66
f 8/9/67 7/8/67 20/70/67
f 7/72/68 16/17/68 20/21/68
f 7/8/69 17/73/69 16/74/69
f 7/8/70 6/7/70 17/73/70
f 6/75/71 13/14/71 17/66/71
f 6/75/72 14/15/72 13/14/72
f 6/7/73 3/3/73 14/76/73
f 3/3/74 10/77/74 14/76/74
f 5/6/75 8/78/75 19/27/75
f 5/79/76 2/2/76 8/9/76
f 2/2/77 1/1/77 8/9/77
f 3/80/78 11/12/78 10/11/78
f 3/3/79 2/2/79 11/81/79
f 2/2/80 4/82/80 11/81/80
